<?xml version="1.0" encoding="utf-8" standalone="no"?>
<!DOCTYPE svg PUBLIC "-//W3C//DTD SVG 1.1//EN"
  "http://www.w3.org/Graphics/SVG/1.1/DTD/svg11.dtd">
<!-- Created with matplotlib (http://matplotlib.org/) -->
<svg height="225.897028pt" version="1.1" viewBox="0 0 352.289951 225.897028" width="352.289951pt" xmlns="http://www.w3.org/2000/svg" xmlns:xlink="http://www.w3.org/1999/xlink">
 <defs>
  <style type="text/css">
*{stroke-linecap:butt;stroke-linejoin:round;}
  </style>
 </defs>
 <g id="figure_1">
  <g id="patch_1">
   <path d="M 0 225.897028 
L 352.289951 225.897028 
L 352.289951 0 
L 0 0 
z
" style="fill:none;"/>
  </g>
  <g id="axes_1">
   <g id="text_1">
    <!-- ⬤ -->
    <defs>
     <path d="M 30.71875 -17.671875 
Q 5.46875 -3.125 5.46875 25.96875 
Q 5.46875 55.078125 30.71875 69.625 
Q 43.359375 76.953125 55.953125 76.953125 
Q 68.5625 76.953125 81.203125 69.625 
Q 106.453125 55.078125 106.453125 25.96875 
Q 106.453125 -3.125 81.203125 -17.671875 
Q 68.5625 -25 55.953125 -25 
Q 43.359375 -25 30.71875 -17.671875 
z
" id="DejaVuSans-2b24"/>
    </defs>
    <g style="fill:#d62728;" transform="translate(30.103125 162.926226)scale(0.14 -0.14)">
     <use xlink:href="#DejaVuSans-2b24"/>
    </g>
   </g>
   <g id="text_2">
    <!-- ⬤ -->
    <g style="fill:#d62728;" transform="translate(30.103125 131.493052)scale(0.14 -0.14)">
     <use xlink:href="#DejaVuSans-2b24"/>
    </g>
   </g>
   <g id="text_3">
    <!-- ⬤ -->
    <g style="fill:#d62728;" transform="translate(30.103125 100.059878)scale(0.14 -0.14)">
     <use xlink:href="#DejaVuSans-2b24"/>
    </g>
   </g>
   <g id="text_4">
    <!-- ⬤ -->
    <g style="fill:#d62728;" transform="translate(30.103125 68.626704)scale(0.14 -0.14)">
     <use xlink:href="#DejaVuSans-2b24"/>
    </g>
   </g>
   <g id="text_5">
    <!-- ⬤ -->
    <g style="fill:#d62728;" transform="translate(30.103125 37.19353)scale(0.14 -0.14)">
     <use xlink:href="#DejaVuSans-2b24"/>
    </g>
   </g>
   <g id="text_6">
    <!-- ⬤ -->
    <g style="fill:#d62728;" transform="translate(61.536299 162.926226)scale(0.14 -0.14)">
     <use xlink:href="#DejaVuSans-2b24"/>
    </g>
   </g>
   <g id="text_7">
    <!-- ⬤ -->
    <g style="fill:#d62728;" transform="translate(61.536299 131.493052)scale(0.14 -0.14)">
     <use xlink:href="#DejaVuSans-2b24"/>
    </g>
   </g>
   <g id="text_8">
    <!-- ⬤ -->
    <g style="fill:#d62728;" transform="translate(61.536299 100.059878)scale(0.14 -0.14)">
     <use xlink:href="#DejaVuSans-2b24"/>
    </g>
   </g>
   <g id="text_9">
    <!-- ⬤ -->
    <g style="fill:#d62728;" transform="translate(61.536299 68.626704)scale(0.14 -0.14)">
     <use xlink:href="#DejaVuSans-2b24"/>
    </g>
   </g>
   <g id="text_10">
    <!-- ⬤ -->
    <g style="fill:#d62728;" transform="translate(61.536299 37.19353)scale(0.14 -0.14)">
     <use xlink:href="#DejaVuSans-2b24"/>
    </g>
   </g>
   <g id="text_11">
    <!-- ⬤ -->
    <g style="fill:#d62728;" transform="translate(92.969473 162.926226)scale(0.14 -0.14)">
     <use xlink:href="#DejaVuSans-2b24"/>
    </g>
   </g>
   <g id="text_12">
    <!-- ⬤ -->
    <g style="fill:#d62728;" transform="translate(92.969473 131.493052)scale(0.14 -0.14)">
     <use xlink:href="#DejaVuSans-2b24"/>
    </g>
   </g>
   <g id="text_13">
    <!-- ⬤ -->
    <g style="fill:#d62728;" transform="translate(92.969473 100.059878)scale(0.14 -0.14)">
     <use xlink:href="#DejaVuSans-2b24"/>
    </g>
   </g>
   <g id="text_14">
    <!-- ⬤ -->
    <g style="fill:#d62728;" transform="translate(92.969473 68.626704)scale(0.14 -0.14)">
     <use xlink:href="#DejaVuSans-2b24"/>
    </g>
   </g>
   <g id="text_15">
    <!-- ⬤ -->
    <g style="fill:#d62728;" transform="translate(92.969473 37.19353)scale(0.14 -0.14)">
     <use xlink:href="#DejaVuSans-2b24"/>
    </g>
   </g>
   <g id="text_16">
    <!-- ⬤ -->
    <g style="fill:#d62728;" transform="translate(124.402647 162.926226)scale(0.14 -0.14)">
     <use xlink:href="#DejaVuSans-2b24"/>
    </g>
   </g>
   <g id="text_17">
    <!-- ⬤ -->
    <g style="fill:#d62728;" transform="translate(124.402647 131.493052)scale(0.14 -0.14)">
     <use xlink:href="#DejaVuSans-2b24"/>
    </g>
   </g>
   <g id="text_18">
    <!-- ⬤ -->
    <g style="fill:#d62728;" transform="translate(124.402647 100.059878)scale(0.14 -0.14)">
     <use xlink:href="#DejaVuSans-2b24"/>
    </g>
   </g>
   <g id="text_19">
    <!-- ⬤ -->
    <g style="fill:#ff7f0e;" transform="translate(124.402647 68.626704)scale(0.14 -0.14)">
     <use xlink:href="#DejaVuSans-2b24"/>
    </g>
   </g>
   <g id="text_20">
    <!-- ⬤ -->
    <g style="fill:#ff7f0e;" transform="translate(124.402647 37.19353)scale(0.14 -0.14)">
     <use xlink:href="#DejaVuSans-2b24"/>
    </g>
   </g>
   <g id="text_21">
    <!-- ⬤ -->
    <g style="fill:#ff7f0e;" transform="translate(155.83582 162.926226)scale(0.14 -0.14)">
     <use xlink:href="#DejaVuSans-2b24"/>
    </g>
   </g>
   <g id="text_22">
    <!-- ⬤ -->
    <g style="fill:#ff7f0e;" transform="translate(155.83582 131.493052)scale(0.14 -0.14)">
     <use xlink:href="#DejaVuSans-2b24"/>
    </g>
   </g>
   <g id="text_23">
    <!-- ⬤ -->
    <g style="fill:#ff7f0e;" transform="translate(155.83582 100.059878)scale(0.14 -0.14)">
     <use xlink:href="#DejaVuSans-2b24"/>
    </g>
   </g>
   <g id="text_24">
    <!-- ⬤ -->
    <g style="fill:#ff7f0e;" transform="translate(155.83582 68.626704)scale(0.14 -0.14)">
     <use xlink:href="#DejaVuSans-2b24"/>
    </g>
   </g>
   <g id="text_25">
    <!-- ⬤ -->
    <g style="fill:#ff7f0e;" transform="translate(155.83582 37.19353)scale(0.14 -0.14)">
     <use xlink:href="#DejaVuSans-2b24"/>
    </g>
   </g>
   <g id="text_26">
    <!-- ⬤ -->
    <g style="fill:#ff7f0e;" transform="translate(187.268994 162.926226)scale(0.14 -0.14)">
     <use xlink:href="#DejaVuSans-2b24"/>
    </g>
   </g>
   <g id="text_27">
    <!-- ⬤ -->
    <g style="fill:#1f77b4;" transform="translate(187.268994 131.493052)scale(0.14 -0.14)">
     <use xlink:href="#DejaVuSans-2b24"/>
    </g>
   </g>
   <g id="text_28">
    <!-- ⬤ -->
    <g style="fill:#1f77b4;" transform="translate(187.268994 100.059878)scale(0.14 -0.14)">
     <use xlink:href="#DejaVuSans-2b24"/>
    </g>
   </g>
   <g id="text_29">
    <!-- ⬤ -->
    <g style="fill:#1f77b4;" transform="translate(187.268994 68.626704)scale(0.14 -0.14)">
     <use xlink:href="#DejaVuSans-2b24"/>
    </g>
   </g>
   <g id="text_30">
    <!-- ⬤ -->
    <g style="fill:#1f77b4;" transform="translate(187.268994 37.19353)scale(0.14 -0.14)">
     <use xlink:href="#DejaVuSans-2b24"/>
    </g>
   </g>
   <g id="text_31">
    <!-- ⬤ -->
    <g style="fill:#7f7f7f;" transform="translate(218.702168 162.926226)scale(0.14 -0.14)">
     <use xlink:href="#DejaVuSans-2b24"/>
    </g>
   </g>
   <g id="text_32">
    <!-- ⬤ -->
    <g style="fill:#7f7f7f;" transform="translate(218.702168 131.493052)scale(0.14 -0.14)">
     <use xlink:href="#DejaVuSans-2b24"/>
    </g>
   </g>
   <g id="text_33">
    <!-- ⬤ -->
    <g style="fill:#7f7f7f;" transform="translate(218.702168 100.059878)scale(0.14 -0.14)">
     <use xlink:href="#DejaVuSans-2b24"/>
    </g>
   </g>
   <g id="text_34">
    <!-- ⬤ -->
    <g style="fill:#7f7f7f;" transform="translate(218.702168 68.626704)scale(0.14 -0.14)">
     <use xlink:href="#DejaVuSans-2b24"/>
    </g>
   </g>
   <g id="text_35">
    <!-- ⬤ -->
    <g style="fill:#7f7f7f;" transform="translate(218.702168 37.19353)scale(0.14 -0.14)">
     <use xlink:href="#DejaVuSans-2b24"/>
    </g>
   </g>
   <g id="text_36">
    <!-- ⬤ -->
    <g style="fill:#7f7f7f;" transform="translate(250.135342 162.926226)scale(0.14 -0.14)">
     <use xlink:href="#DejaVuSans-2b24"/>
    </g>
   </g>
   <g id="text_37">
    <!-- ⬤ -->
    <g style="fill:#7f7f7f;" transform="translate(250.135342 131.493052)scale(0.14 -0.14)">
     <use xlink:href="#DejaVuSans-2b24"/>
    </g>
   </g>
   <g id="text_38">
    <!-- ⬤ -->
    <g style="fill:#7f7f7f;" transform="translate(250.135342 100.059878)scale(0.14 -0.14)">
     <use xlink:href="#DejaVuSans-2b24"/>
    </g>
   </g>
   <g id="text_39">
    <!-- ⬤ -->
    <g style="fill:#7f7f7f;" transform="translate(250.135342 68.626704)scale(0.14 -0.14)">
     <use xlink:href="#DejaVuSans-2b24"/>
    </g>
   </g>
   <g id="text_40">
    <!-- ⬤ -->
    <g style="fill:#7f7f7f;" transform="translate(250.135342 37.19353)scale(0.14 -0.14)">
     <use xlink:href="#DejaVuSans-2b24"/>
    </g>
   </g>
   <g id="text_41">
    <!-- ⬤ -->
    <g style="fill:#7f7f7f;" transform="translate(281.568516 162.926226)scale(0.14 -0.14)">
     <use xlink:href="#DejaVuSans-2b24"/>
    </g>
   </g>
   <g id="text_42">
    <!-- ⬤ -->
    <g style="fill:#7f7f7f;" transform="translate(281.568516 131.493052)scale(0.14 -0.14)">
     <use xlink:href="#DejaVuSans-2b24"/>
    </g>
   </g>
   <g id="text_43">
    <!-- ⬤ -->
    <g style="fill:#7f7f7f;" transform="translate(281.568516 100.059878)scale(0.14 -0.14)">
     <use xlink:href="#DejaVuSans-2b24"/>
    </g>
   </g>
   <g id="text_44">
    <!-- ⬤ -->
    <g style="fill:#7f7f7f;" transform="translate(281.568516 68.626704)scale(0.14 -0.14)">
     <use xlink:href="#DejaVuSans-2b24"/>
    </g>
   </g>
   <g id="text_45">
    <!-- ⬤ -->
    <g style="fill:#7f7f7f;" transform="translate(281.568516 37.19353)scale(0.14 -0.14)">
     <use xlink:href="#DejaVuSans-2b24"/>
    </g>
   </g>
   <g id="text_46">
    <!-- ⬤ -->
    <g style="fill:#7f7f7f;" transform="translate(313.00169 162.926226)scale(0.14 -0.14)">
     <use xlink:href="#DejaVuSans-2b24"/>
    </g>
   </g>
   <g id="text_47">
    <!-- ⬤ -->
    <g style="fill:#7f7f7f;" transform="translate(313.00169 131.493052)scale(0.14 -0.14)">
     <use xlink:href="#DejaVuSans-2b24"/>
    </g>
   </g>
   <g id="text_48">
    <!-- ⬤ -->
    <g style="fill:#7f7f7f;" transform="translate(313.00169 100.059878)scale(0.14 -0.14)">
     <use xlink:href="#DejaVuSans-2b24"/>
    </g>
   </g>
   <g id="text_49">
    <!-- ⬤ -->
    <g style="fill:#7f7f7f;" transform="translate(313.00169 68.626704)scale(0.14 -0.14)">
     <use xlink:href="#DejaVuSans-2b24"/>
    </g>
   </g>
   <g id="text_50">
    <!-- ⬤ -->
    <g style="fill:#7f7f7f;" transform="translate(313.00169 37.19353)scale(0.14 -0.14)">
     <use xlink:href="#DejaVuSans-2b24"/>
    </g>
   </g>
   <g id="legend_1">
    <g id="patch_2">
     <path d="M 37.103125 218.697028 
L 274.976562 218.697028 
Q 276.976562 218.697028 276.976562 216.697028 
L 276.976562 188.340778 
Q 276.976562 186.340778 274.976562 186.340778 
L 37.103125 186.340778 
Q 35.103125 186.340778 35.103125 188.340778 
L 35.103125 216.697028 
Q 35.103125 218.697028 37.103125 218.697028 
z
" style="fill:none;opacity:0;"/>
    </g>
    <g id="patch_3">
     <path d="M 39.103125 197.939216 
L 59.103125 197.939216 
L 59.103125 190.939216 
L 39.103125 190.939216 
z
" style="fill:#d62728;stroke:#d62728;stroke-linejoin:miter;"/>
    </g>
    <g id="text_51">
     <!-- Red Meat (36%) -->
     <defs>
      <path d="M 44.390625 34.1875 
Q 47.5625 33.109375 50.5625 29.59375 
Q 53.5625 26.078125 56.59375 19.921875 
L 66.609375 0 
L 56 0 
L 46.6875 18.703125 
Q 43.0625 26.03125 39.671875 28.421875 
Q 36.28125 30.8125 30.421875 30.8125 
L 19.671875 30.8125 
L 19.671875 0 
L 9.8125 0 
L 9.8125 72.90625 
L 32.078125 72.90625 
Q 44.578125 72.90625 50.734375 67.671875 
Q 56.890625 62.453125 56.890625 51.90625 
Q 56.890625 45.015625 53.6875 40.46875 
Q 50.484375 35.9375 44.390625 34.1875 
z
M 19.671875 64.796875 
L 19.671875 38.921875 
L 32.078125 38.921875 
Q 39.203125 38.921875 42.84375 42.21875 
Q 46.484375 45.515625 46.484375 51.90625 
Q 46.484375 58.296875 42.84375 61.546875 
Q 39.203125 64.796875 32.078125 64.796875 
z
" id="DejaVuSans-52"/>
      <path d="M 56.203125 29.59375 
L 56.203125 25.203125 
L 14.890625 25.203125 
Q 15.484375 15.921875 20.484375 11.0625 
Q 25.484375 6.203125 34.421875 6.203125 
Q 39.59375 6.203125 44.453125 7.46875 
Q 49.3125 8.734375 54.109375 11.28125 
L 54.109375 2.78125 
Q 49.265625 0.734375 44.1875 -0.34375 
Q 39.109375 -1.421875 33.890625 -1.421875 
Q 20.796875 -1.421875 13.15625 6.1875 
Q 5.515625 13.8125 5.515625 26.8125 
Q 5.515625 40.234375 12.765625 48.109375 
Q 20.015625 56 32.328125 56 
Q 43.359375 56 49.78125 48.890625 
Q 56.203125 41.796875 56.203125 29.59375 
z
M 47.21875 32.234375 
Q 47.125 39.59375 43.09375 43.984375 
Q 39.0625 48.390625 32.421875 48.390625 
Q 24.90625 48.390625 20.390625 44.140625 
Q 15.875 39.890625 15.1875 32.171875 
z
" id="DejaVuSans-65"/>
      <path d="M 45.40625 46.390625 
L 45.40625 75.984375 
L 54.390625 75.984375 
L 54.390625 0 
L 45.40625 0 
L 45.40625 8.203125 
Q 42.578125 3.328125 38.25 0.953125 
Q 33.9375 -1.421875 27.875 -1.421875 
Q 17.96875 -1.421875 11.734375 6.484375 
Q 5.515625 14.40625 5.515625 27.296875 
Q 5.515625 40.1875 11.734375 48.09375 
Q 17.96875 56 27.875 56 
Q 33.9375 56 38.25 53.625 
Q 42.578125 51.265625 45.40625 46.390625 
z
M 14.796875 27.296875 
Q 14.796875 17.390625 18.875 11.75 
Q 22.953125 6.109375 30.078125 6.109375 
Q 37.203125 6.109375 41.296875 11.75 
Q 45.40625 17.390625 45.40625 27.296875 
Q 45.40625 37.203125 41.296875 42.84375 
Q 37.203125 48.484375 30.078125 48.484375 
Q 22.953125 48.484375 18.875 42.84375 
Q 14.796875 37.203125 14.796875 27.296875 
z
" id="DejaVuSans-64"/>
      <path id="DejaVuSans-20"/>
      <path d="M 9.8125 72.90625 
L 24.515625 72.90625 
L 43.109375 23.296875 
L 61.8125 72.90625 
L 76.515625 72.90625 
L 76.515625 0 
L 66.890625 0 
L 66.890625 64.015625 
L 48.09375 14.015625 
L 38.1875 14.015625 
L 19.390625 64.015625 
L 19.390625 0 
L 9.8125 0 
z
" id="DejaVuSans-4d"/>
      <path d="M 34.28125 27.484375 
Q 23.390625 27.484375 19.1875 25 
Q 14.984375 22.515625 14.984375 16.5 
Q 14.984375 11.71875 18.140625 8.90625 
Q 21.296875 6.109375 26.703125 6.109375 
Q 34.1875 6.109375 38.703125 11.40625 
Q 43.21875 16.703125 43.21875 25.484375 
L 43.21875 27.484375 
z
M 52.203125 31.203125 
L 52.203125 0 
L 43.21875 0 
L 43.21875 8.296875 
Q 40.140625 3.328125 35.546875 0.953125 
Q 30.953125 -1.421875 24.3125 -1.421875 
Q 15.921875 -1.421875 10.953125 3.296875 
Q 6 8.015625 6 15.921875 
Q 6 25.140625 12.171875 29.828125 
Q 18.359375 34.515625 30.609375 34.515625 
L 43.21875 34.515625 
L 43.21875 35.40625 
Q 43.21875 41.609375 39.140625 45 
Q 35.0625 48.390625 27.6875 48.390625 
Q 23 48.390625 18.546875 47.265625 
Q 14.109375 46.140625 10.015625 43.890625 
L 10.015625 52.203125 
Q 14.9375 54.109375 19.578125 55.046875 
Q 24.21875 56 28.609375 56 
Q 40.484375 56 46.34375 49.84375 
Q 52.203125 43.703125 52.203125 31.203125 
z
" id="DejaVuSans-61"/>
      <path d="M 18.3125 70.21875 
L 18.3125 54.6875 
L 36.8125 54.6875 
L 36.8125 47.703125 
L 18.3125 47.703125 
L 18.3125 18.015625 
Q 18.3125 11.328125 20.140625 9.421875 
Q 21.96875 7.515625 27.59375 7.515625 
L 36.8125 7.515625 
L 36.8125 0 
L 27.59375 0 
Q 17.1875 0 13.234375 3.875 
Q 9.28125 7.765625 9.28125 18.015625 
L 9.28125 47.703125 
L 2.6875 47.703125 
L 2.6875 54.6875 
L 9.28125 54.6875 
L 9.28125 70.21875 
z
" id="DejaVuSans-74"/>
      <path d="M 31 75.875 
Q 24.46875 64.65625 21.28125 53.65625 
Q 18.109375 42.671875 18.109375 31.390625 
Q 18.109375 20.125 21.3125 9.0625 
Q 24.515625 -2 31 -13.1875 
L 23.1875 -13.1875 
Q 15.875 -1.703125 12.234375 9.375 
Q 8.59375 20.453125 8.59375 31.390625 
Q 8.59375 42.28125 12.203125 53.3125 
Q 15.828125 64.359375 23.1875 75.875 
z
" id="DejaVuSans-28"/>
      <path d="M 40.578125 39.3125 
Q 47.65625 37.796875 51.625 33 
Q 55.609375 28.21875 55.609375 21.1875 
Q 55.609375 10.40625 48.1875 4.484375 
Q 40.765625 -1.421875 27.09375 -1.421875 
Q 22.515625 -1.421875 17.65625 -0.515625 
Q 12.796875 0.390625 7.625 2.203125 
L 7.625 11.71875 
Q 11.71875 9.328125 16.59375 8.109375 
Q 21.484375 6.890625 26.8125 6.890625 
Q 36.078125 6.890625 40.9375 10.546875 
Q 45.796875 14.203125 45.796875 21.1875 
Q 45.796875 27.640625 41.28125 31.265625 
Q 36.765625 34.90625 28.71875 34.90625 
L 20.21875 34.90625 
L 20.21875 43.015625 
L 29.109375 43.015625 
Q 36.375 43.015625 40.234375 45.921875 
Q 44.09375 48.828125 44.09375 54.296875 
Q 44.09375 59.90625 40.109375 62.90625 
Q 36.140625 65.921875 28.71875 65.921875 
Q 24.65625 65.921875 20.015625 65.03125 
Q 15.375 64.15625 9.8125 62.3125 
L 9.8125 71.09375 
Q 15.4375 72.65625 20.34375 73.4375 
Q 25.25 74.21875 29.59375 74.21875 
Q 40.828125 74.21875 47.359375 69.109375 
Q 53.90625 64.015625 53.90625 55.328125 
Q 53.90625 49.265625 50.4375 45.09375 
Q 46.96875 40.921875 40.578125 39.3125 
z
" id="DejaVuSans-33"/>
      <path d="M 33.015625 40.375 
Q 26.375 40.375 22.484375 35.828125 
Q 18.609375 31.296875 18.609375 23.390625 
Q 18.609375 15.53125 22.484375 10.953125 
Q 26.375 6.390625 33.015625 6.390625 
Q 39.65625 6.390625 43.53125 10.953125 
Q 47.40625 15.53125 47.40625 23.390625 
Q 47.40625 31.296875 43.53125 35.828125 
Q 39.65625 40.375 33.015625 40.375 
z
M 52.59375 71.296875 
L 52.59375 62.3125 
Q 48.875 64.0625 45.09375 64.984375 
Q 41.3125 65.921875 37.59375 65.921875 
Q 27.828125 65.921875 22.671875 59.328125 
Q 17.53125 52.734375 16.796875 39.40625 
Q 19.671875 43.65625 24.015625 45.921875 
Q 28.375 48.1875 33.59375 48.1875 
Q 44.578125 48.1875 50.953125 41.515625 
Q 57.328125 34.859375 57.328125 23.390625 
Q 57.328125 12.15625 50.6875 5.359375 
Q 44.046875 -1.421875 33.015625 -1.421875 
Q 20.359375 -1.421875 13.671875 8.265625 
Q 6.984375 17.96875 6.984375 36.375 
Q 6.984375 53.65625 15.1875 63.9375 
Q 23.390625 74.21875 37.203125 74.21875 
Q 40.921875 74.21875 44.703125 73.484375 
Q 48.484375 72.75 52.59375 71.296875 
z
" id="DejaVuSans-36"/>
      <path d="M 72.703125 32.078125 
Q 68.453125 32.078125 66.03125 28.46875 
Q 63.625 24.859375 63.625 18.40625 
Q 63.625 12.0625 66.03125 8.421875 
Q 68.453125 4.78125 72.703125 4.78125 
Q 76.859375 4.78125 79.265625 8.421875 
Q 81.6875 12.0625 81.6875 18.40625 
Q 81.6875 24.8125 79.265625 28.4375 
Q 76.859375 32.078125 72.703125 32.078125 
z
M 72.703125 38.28125 
Q 80.421875 38.28125 84.953125 32.90625 
Q 89.5 27.546875 89.5 18.40625 
Q 89.5 9.28125 84.9375 3.921875 
Q 80.375 -1.421875 72.703125 -1.421875 
Q 64.890625 -1.421875 60.34375 3.921875 
Q 55.8125 9.28125 55.8125 18.40625 
Q 55.8125 27.59375 60.375 32.9375 
Q 64.9375 38.28125 72.703125 38.28125 
z
M 22.3125 68.015625 
Q 18.109375 68.015625 15.6875 64.375 
Q 13.28125 60.75 13.28125 54.390625 
Q 13.28125 47.953125 15.671875 44.328125 
Q 18.0625 40.71875 22.3125 40.71875 
Q 26.5625 40.71875 28.96875 44.328125 
Q 31.390625 47.953125 31.390625 54.390625 
Q 31.390625 60.6875 28.953125 64.34375 
Q 26.515625 68.015625 22.3125 68.015625 
z
M 66.40625 74.21875 
L 74.21875 74.21875 
L 28.609375 -1.421875 
L 20.796875 -1.421875 
z
M 22.3125 74.21875 
Q 30.03125 74.21875 34.609375 68.875 
Q 39.203125 63.53125 39.203125 54.390625 
Q 39.203125 45.171875 34.640625 39.84375 
Q 30.078125 34.515625 22.3125 34.515625 
Q 14.546875 34.515625 10.03125 39.859375 
Q 5.515625 45.21875 5.515625 54.390625 
Q 5.515625 63.484375 10.046875 68.84375 
Q 14.59375 74.21875 22.3125 74.21875 
z
" id="DejaVuSans-25"/>
      <path d="M 8.015625 75.875 
L 15.828125 75.875 
Q 23.140625 64.359375 26.78125 53.3125 
Q 30.421875 42.28125 30.421875 31.390625 
Q 30.421875 20.453125 26.78125 9.375 
Q 23.140625 -1.703125 15.828125 -13.1875 
L 8.015625 -13.1875 
Q 14.5 -2 17.703125 9.0625 
Q 20.90625 20.125 20.90625 31.390625 
Q 20.90625 42.671875 17.703125 53.65625 
Q 14.5 64.65625 8.015625 75.875 
z
" id="DejaVuSans-29"/>
     </defs>
     <g transform="translate(67.103125 197.939216)scale(0.1 -0.1)">
      <use xlink:href="#DejaVuSans-52"/>
      <use x="69.419922" xlink:href="#DejaVuSans-65"/>
      <use x="130.943359" xlink:href="#DejaVuSans-64"/>
      <use x="194.419922" xlink:href="#DejaVuSans-20"/>
      <use x="226.207031" xlink:href="#DejaVuSans-4d"/>
      <use x="312.486328" xlink:href="#DejaVuSans-65"/>
      <use x="374.009766" xlink:href="#DejaVuSans-61"/>
      <use x="435.289062" xlink:href="#DejaVuSans-74"/>
      <use x="474.498047" xlink:href="#DejaVuSans-20"/>
      <use x="506.285156" xlink:href="#DejaVuSans-28"/>
      <use x="545.298828" xlink:href="#DejaVuSans-33"/>
      <use x="608.921875" xlink:href="#DejaVuSans-36"/>
      <use x="672.544922" xlink:href="#DejaVuSans-25"/>
      <use x="767.564453" xlink:href="#DejaVuSans-29"/>
     </g>
    </g>
    <g id="patch_4">
     <path d="M 39.103125 212.617341 
L 59.103125 212.617341 
L 59.103125 205.617341 
L 39.103125 205.617341 
z
" style="fill:#ff7f0e;stroke:#ff7f0e;stroke-linejoin:miter;"/>
    </g>
    <g id="text_52">
     <!-- White Meat (17%) -->
     <defs>
      <path d="M 3.328125 72.90625 
L 13.28125 72.90625 
L 28.609375 11.28125 
L 43.890625 72.90625 
L 54.984375 72.90625 
L 70.3125 11.28125 
L 85.59375 72.90625 
L 95.609375 72.90625 
L 77.296875 0 
L 64.890625 0 
L 49.515625 63.28125 
L 33.984375 0 
L 21.578125 0 
z
" id="DejaVuSans-57"/>
      <path d="M 54.890625 33.015625 
L 54.890625 0 
L 45.90625 0 
L 45.90625 32.71875 
Q 45.90625 40.484375 42.875 44.328125 
Q 39.84375 48.1875 33.796875 48.1875 
Q 26.515625 48.1875 22.3125 43.546875 
Q 18.109375 38.921875 18.109375 30.90625 
L 18.109375 0 
L 9.078125 0 
L 9.078125 75.984375 
L 18.109375 75.984375 
L 18.109375 46.1875 
Q 21.34375 51.125 25.703125 53.5625 
Q 30.078125 56 35.796875 56 
Q 45.21875 56 50.046875 50.171875 
Q 54.890625 44.34375 54.890625 33.015625 
z
" id="DejaVuSans-68"/>
      <path d="M 9.421875 54.6875 
L 18.40625 54.6875 
L 18.40625 0 
L 9.421875 0 
z
M 9.421875 75.984375 
L 18.40625 75.984375 
L 18.40625 64.59375 
L 9.421875 64.59375 
z
" id="DejaVuSans-69"/>
      <path d="M 12.40625 8.296875 
L 28.515625 8.296875 
L 28.515625 63.921875 
L 10.984375 60.40625 
L 10.984375 69.390625 
L 28.421875 72.90625 
L 38.28125 72.90625 
L 38.28125 8.296875 
L 54.390625 8.296875 
L 54.390625 0 
L 12.40625 0 
z
" id="DejaVuSans-31"/>
      <path d="M 8.203125 72.90625 
L 55.078125 72.90625 
L 55.078125 68.703125 
L 28.609375 0 
L 18.3125 0 
L 43.21875 64.59375 
L 8.203125 64.59375 
z
" id="DejaVuSans-37"/>
     </defs>
     <g transform="translate(67.103125 212.617341)scale(0.1 -0.1)">
      <use xlink:href="#DejaVuSans-57"/>
      <use x="98.876953" xlink:href="#DejaVuSans-68"/>
      <use x="162.255859" xlink:href="#DejaVuSans-69"/>
      <use x="190.039062" xlink:href="#DejaVuSans-74"/>
      <use x="229.248047" xlink:href="#DejaVuSans-65"/>
      <use x="290.771484" xlink:href="#DejaVuSans-20"/>
      <use x="322.558594" xlink:href="#DejaVuSans-4d"/>
      <use x="408.837891" xlink:href="#DejaVuSans-65"/>
      <use x="470.361328" xlink:href="#DejaVuSans-61"/>
      <use x="531.640625" xlink:href="#DejaVuSans-74"/>
      <use x="570.849609" xlink:href="#DejaVuSans-20"/>
      <use x="602.636719" xlink:href="#DejaVuSans-28"/>
      <use x="641.650391" xlink:href="#DejaVuSans-31"/>
      <use x="705.273438" xlink:href="#DejaVuSans-37"/>
      <use x="768.896484" xlink:href="#DejaVuSans-25"/>
      <use x="863.916016" xlink:href="#DejaVuSans-29"/>
     </g>
    </g>
    <g id="patch_5">
     <path d="M 177.395313 197.939216 
L 197.395313 197.939216 
L 197.395313 190.939216 
L 177.395313 190.939216 
z
" style="fill:#1f77b4;stroke:#1f77b4;stroke-linejoin:miter;"/>
    </g>
    <g id="text_53">
     <!-- Seafood (7%) -->
     <defs>
      <path d="M 53.515625 70.515625 
L 53.515625 60.890625 
Q 47.90625 63.578125 42.921875 64.890625 
Q 37.9375 66.21875 33.296875 66.21875 
Q 25.25 66.21875 20.875 63.09375 
Q 16.5 59.96875 16.5 54.203125 
Q 16.5 49.359375 19.40625 46.890625 
Q 22.3125 44.4375 30.421875 42.921875 
L 36.375 41.703125 
Q 47.40625 39.59375 52.65625 34.296875 
Q 57.90625 29 57.90625 20.125 
Q 57.90625 9.515625 50.796875 4.046875 
Q 43.703125 -1.421875 29.984375 -1.421875 
Q 24.8125 -1.421875 18.96875 -0.25 
Q 13.140625 0.921875 6.890625 3.21875 
L 6.890625 13.375 
Q 12.890625 10.015625 18.65625 8.296875 
Q 24.421875 6.59375 29.984375 6.59375 
Q 38.421875 6.59375 43.015625 9.90625 
Q 47.609375 13.234375 47.609375 19.390625 
Q 47.609375 24.75 44.3125 27.78125 
Q 41.015625 30.8125 33.5 32.328125 
L 27.484375 33.5 
Q 16.453125 35.6875 11.515625 40.375 
Q 6.59375 45.0625 6.59375 53.421875 
Q 6.59375 63.09375 13.40625 68.65625 
Q 20.21875 74.21875 32.171875 74.21875 
Q 37.3125 74.21875 42.625 73.28125 
Q 47.953125 72.359375 53.515625 70.515625 
z
" id="DejaVuSans-53"/>
      <path d="M 37.109375 75.984375 
L 37.109375 68.5 
L 28.515625 68.5 
Q 23.6875 68.5 21.796875 66.546875 
Q 19.921875 64.59375 19.921875 59.515625 
L 19.921875 54.6875 
L 34.71875 54.6875 
L 34.71875 47.703125 
L 19.921875 47.703125 
L 19.921875 0 
L 10.890625 0 
L 10.890625 47.703125 
L 2.296875 47.703125 
L 2.296875 54.6875 
L 10.890625 54.6875 
L 10.890625 58.5 
Q 10.890625 67.625 15.140625 71.796875 
Q 19.390625 75.984375 28.609375 75.984375 
z
" id="DejaVuSans-66"/>
      <path d="M 30.609375 48.390625 
Q 23.390625 48.390625 19.1875 42.75 
Q 14.984375 37.109375 14.984375 27.296875 
Q 14.984375 17.484375 19.15625 11.84375 
Q 23.34375 6.203125 30.609375 6.203125 
Q 37.796875 6.203125 41.984375 11.859375 
Q 46.1875 17.53125 46.1875 27.296875 
Q 46.1875 37.015625 41.984375 42.703125 
Q 37.796875 48.390625 30.609375 48.390625 
z
M 30.609375 56 
Q 42.328125 56 49.015625 48.375 
Q 55.71875 40.765625 55.71875 27.296875 
Q 55.71875 13.875 49.015625 6.21875 
Q 42.328125 -1.421875 30.609375 -1.421875 
Q 18.84375 -1.421875 12.171875 6.21875 
Q 5.515625 13.875 5.515625 27.296875 
Q 5.515625 40.765625 12.171875 48.375 
Q 18.84375 56 30.609375 56 
z
" id="DejaVuSans-6f"/>
     </defs>
     <g transform="translate(205.395313 197.939216)scale(0.1 -0.1)">
      <use xlink:href="#DejaVuSans-53"/>
      <use x="63.476562" xlink:href="#DejaVuSans-65"/>
      <use x="125" xlink:href="#DejaVuSans-61"/>
      <use x="186.279297" xlink:href="#DejaVuSans-66"/>
      <use x="221.484375" xlink:href="#DejaVuSans-6f"/>
      <use x="282.666016" xlink:href="#DejaVuSans-6f"/>
      <use x="343.847656" xlink:href="#DejaVuSans-64"/>
      <use x="407.324219" xlink:href="#DejaVuSans-20"/>
      <use x="439.111328" xlink:href="#DejaVuSans-28"/>
      <use x="478.125" xlink:href="#DejaVuSans-37"/>
      <use x="541.748047" xlink:href="#DejaVuSans-25"/>
      <use x="636.767578" xlink:href="#DejaVuSans-29"/>
     </g>
    </g>
    <g id="patch_6">
     <path d="M 177.395313 212.617341 
L 197.395313 212.617341 
L 197.395313 205.617341 
L 177.395313 205.617341 
z
" style="fill:#7f7f7f;stroke:#7f7f7f;stroke-linejoin:miter;"/>
    </g>
    <g id="text_54">
     <!-- Other (40%) -->
     <defs>
      <path d="M 39.40625 66.21875 
Q 28.65625 66.21875 22.328125 58.203125 
Q 16.015625 50.203125 16.015625 36.375 
Q 16.015625 22.609375 22.328125 14.59375 
Q 28.65625 6.59375 39.40625 6.59375 
Q 50.140625 6.59375 56.421875 14.59375 
Q 62.703125 22.609375 62.703125 36.375 
Q 62.703125 50.203125 56.421875 58.203125 
Q 50.140625 66.21875 39.40625 66.21875 
z
M 39.40625 74.21875 
Q 54.734375 74.21875 63.90625 63.9375 
Q 73.09375 53.65625 73.09375 36.375 
Q 73.09375 19.140625 63.90625 8.859375 
Q 54.734375 -1.421875 39.40625 -1.421875 
Q 24.03125 -1.421875 14.8125 8.828125 
Q 5.609375 19.09375 5.609375 36.375 
Q 5.609375 53.65625 14.8125 63.9375 
Q 24.03125 74.21875 39.40625 74.21875 
z
" id="DejaVuSans-4f"/>
      <path d="M 41.109375 46.296875 
Q 39.59375 47.171875 37.8125 47.578125 
Q 36.03125 48 33.890625 48 
Q 26.265625 48 22.1875 43.046875 
Q 18.109375 38.09375 18.109375 28.8125 
L 18.109375 0 
L 9.078125 0 
L 9.078125 54.6875 
L 18.109375 54.6875 
L 18.109375 46.1875 
Q 20.953125 51.171875 25.484375 53.578125 
Q 30.03125 56 36.53125 56 
Q 37.453125 56 38.578125 55.875 
Q 39.703125 55.765625 41.0625 55.515625 
z
" id="DejaVuSans-72"/>
      <path d="M 37.796875 64.3125 
L 12.890625 25.390625 
L 37.796875 25.390625 
z
M 35.203125 72.90625 
L 47.609375 72.90625 
L 47.609375 25.390625 
L 58.015625 25.390625 
L 58.015625 17.1875 
L 47.609375 17.1875 
L 47.609375 0 
L 37.796875 0 
L 37.796875 17.1875 
L 4.890625 17.1875 
L 4.890625 26.703125 
z
" id="DejaVuSans-34"/>
      <path d="M 31.78125 66.40625 
Q 24.171875 66.40625 20.328125 58.90625 
Q 16.5 51.421875 16.5 36.375 
Q 16.5 21.390625 20.328125 13.890625 
Q 24.171875 6.390625 31.78125 6.390625 
Q 39.453125 6.390625 43.28125 13.890625 
Q 47.125 21.390625 47.125 36.375 
Q 47.125 51.421875 43.28125 58.90625 
Q 39.453125 66.40625 31.78125 66.40625 
z
M 31.78125 74.21875 
Q 44.046875 74.21875 50.515625 64.515625 
Q 56.984375 54.828125 56.984375 36.375 
Q 56.984375 17.96875 50.515625 8.265625 
Q 44.046875 -1.421875 31.78125 -1.421875 
Q 19.53125 -1.421875 13.0625 8.265625 
Q 6.59375 17.96875 6.59375 36.375 
Q 6.59375 54.828125 13.0625 64.515625 
Q 19.53125 74.21875 31.78125 74.21875 
z
" id="DejaVuSans-30"/>
     </defs>
     <g transform="translate(205.395313 212.617341)scale(0.1 -0.1)">
      <use xlink:href="#DejaVuSans-4f"/>
      <use x="78.710938" xlink:href="#DejaVuSans-74"/>
      <use x="117.919922" xlink:href="#DejaVuSans-68"/>
      <use x="181.298828" xlink:href="#DejaVuSans-65"/>
      <use x="242.822266" xlink:href="#DejaVuSans-72"/>
      <use x="283.935547" xlink:href="#DejaVuSans-20"/>
      <use x="315.722656" xlink:href="#DejaVuSans-28"/>
      <use x="354.736328" xlink:href="#DejaVuSans-34"/>
      <use x="418.359375" xlink:href="#DejaVuSans-30"/>
      <use x="481.982422" xlink:href="#DejaVuSans-25"/>
      <use x="577.001953" xlink:href="#DejaVuSans-29"/>
     </g>
    </g>
   </g>
  </g>
 </g>
</svg>
