<?xml version="1.0" encoding="utf-8" standalone="no"?>
<!DOCTYPE svg PUBLIC "-//W3C//DTD SVG 1.1//EN"
  "http://www.w3.org/Graphics/SVG/1.1/DTD/svg11.dtd">
<!-- Created with matplotlib (http://matplotlib.org/) -->
<svg height="242.468741pt" version="1.1" viewBox="0 0 712.8 242.468741" width="712.8pt" xmlns="http://www.w3.org/2000/svg" xmlns:xlink="http://www.w3.org/1999/xlink">
 <defs>
  <style type="text/css">
*{stroke-linecap:butt;stroke-linejoin:round;}
  </style>
 </defs>
 <g id="figure_1">
  <g id="patch_1">
   <path d="M 0 242.468741 
L 712.8 242.468741 
L 712.8 -0 
L 0 -0 
z
" style="fill:none;"/>
  </g>
  <g id="axes_1">
   <g id="text_1">
    <!-- ⬤ -->
    <defs>
     <path d="M 30.71875 -17.671875 
Q 5.46875 -3.125 5.46875 25.96875 
Q 5.46875 55.078125 30.71875 69.625 
Q 43.359375 76.953125 55.953125 76.953125 
Q 68.5625 76.953125 81.203125 69.625 
Q 106.453125 55.078125 106.453125 25.96875 
Q 106.453125 -3.125 81.203125 -17.671875 
Q 68.5625 -25 55.953125 -25 
Q 43.359375 -25 30.71875 -17.671875 
z
" id="DejaVuSans-2b24"/>
    </defs>
    <g style="fill:#2ca02c;" transform="translate(30.103125 174.763163)scale(0.14 -0.14)">
     <use xlink:href="#DejaVuSans-2b24"/>
    </g>
   </g>
   <g id="text_2">
    <!-- ⬤ -->
    <g style="fill:#2ca02c;" transform="translate(30.103125 140.880968)scale(0.14 -0.14)">
     <use xlink:href="#DejaVuSans-2b24"/>
    </g>
   </g>
   <g id="text_3">
    <!-- ⬤ -->
    <g style="fill:#2ca02c;" transform="translate(30.103125 106.998772)scale(0.14 -0.14)">
     <use xlink:href="#DejaVuSans-2b24"/>
    </g>
   </g>
   <g id="text_4">
    <!-- ⬤ -->
    <g style="fill:#2ca02c;" transform="translate(30.103125 73.116577)scale(0.14 -0.14)">
     <use xlink:href="#DejaVuSans-2b24"/>
    </g>
   </g>
   <g id="text_5">
    <!-- ⬤ -->
    <g style="fill:#2ca02c;" transform="translate(30.103125 39.234382)scale(0.14 -0.14)">
     <use xlink:href="#DejaVuSans-2b24"/>
    </g>
   </g>
   <g id="text_6">
    <!-- ⬤ -->
    <g style="fill:#2ca02c;" transform="translate(63.98532 174.763163)scale(0.14 -0.14)">
     <use xlink:href="#DejaVuSans-2b24"/>
    </g>
   </g>
   <g id="text_7">
    <!-- ⬤ -->
    <g style="fill:#2ca02c;" transform="translate(63.98532 140.880968)scale(0.14 -0.14)">
     <use xlink:href="#DejaVuSans-2b24"/>
    </g>
   </g>
   <g id="text_8">
    <!-- ⬤ -->
    <g style="fill:#2ca02c;" transform="translate(63.98532 106.998772)scale(0.14 -0.14)">
     <use xlink:href="#DejaVuSans-2b24"/>
    </g>
   </g>
   <g id="text_9">
    <!-- ⬤ -->
    <g style="fill:#2ca02c;" transform="translate(63.98532 73.116577)scale(0.14 -0.14)">
     <use xlink:href="#DejaVuSans-2b24"/>
    </g>
   </g>
   <g id="text_10">
    <!-- ⬤ -->
    <g style="fill:#2ca02c;" transform="translate(63.98532 39.234382)scale(0.14 -0.14)">
     <use xlink:href="#DejaVuSans-2b24"/>
    </g>
   </g>
   <g id="text_11">
    <!-- ⬤ -->
    <g style="fill:#800000;" transform="translate(97.867516 174.763163)scale(0.14 -0.14)">
     <use xlink:href="#DejaVuSans-2b24"/>
    </g>
   </g>
   <g id="text_12">
    <!-- ⬤ -->
    <g style="fill:#800000;" transform="translate(97.867516 140.880968)scale(0.14 -0.14)">
     <use xlink:href="#DejaVuSans-2b24"/>
    </g>
   </g>
   <g id="text_13">
    <!-- ⬤ -->
    <g style="fill:#800000;" transform="translate(97.867516 106.998772)scale(0.14 -0.14)">
     <use xlink:href="#DejaVuSans-2b24"/>
    </g>
   </g>
   <g id="text_14">
    <!-- ⬤ -->
    <g style="fill:#800000;" transform="translate(97.867516 73.116577)scale(0.14 -0.14)">
     <use xlink:href="#DejaVuSans-2b24"/>
    </g>
   </g>
   <g id="text_15">
    <!-- ⬤ -->
    <g style="fill:#800000;" transform="translate(97.867516 39.234382)scale(0.14 -0.14)">
     <use xlink:href="#DejaVuSans-2b24"/>
    </g>
   </g>
   <g id="text_16">
    <!-- ⬤ -->
    <g style="fill:#800000;" transform="translate(131.749711 174.763163)scale(0.14 -0.14)">
     <use xlink:href="#DejaVuSans-2b24"/>
    </g>
   </g>
   <g id="text_17">
    <!-- ⬤ -->
    <g style="fill:#800000;" transform="translate(131.749711 140.880968)scale(0.14 -0.14)">
     <use xlink:href="#DejaVuSans-2b24"/>
    </g>
   </g>
   <g id="text_18">
    <!-- ⬤ -->
    <g style="fill:#800000;" transform="translate(131.749711 106.998772)scale(0.14 -0.14)">
     <use xlink:href="#DejaVuSans-2b24"/>
    </g>
   </g>
   <g id="text_19">
    <!-- ⬤ -->
    <g style="fill:#800000;" transform="translate(131.749711 73.116577)scale(0.14 -0.14)">
     <use xlink:href="#DejaVuSans-2b24"/>
    </g>
   </g>
   <g id="text_20">
    <!-- ⬤ -->
    <g style="fill:#800000;" transform="translate(131.749711 39.234382)scale(0.14 -0.14)">
     <use xlink:href="#DejaVuSans-2b24"/>
    </g>
   </g>
   <g id="text_21">
    <!-- ⬤ -->
    <g style="fill:#800000;" transform="translate(165.631907 174.763163)scale(0.14 -0.14)">
     <use xlink:href="#DejaVuSans-2b24"/>
    </g>
   </g>
   <g id="text_22">
    <!-- ⬤ -->
    <g style="fill:#800000;" transform="translate(165.631907 140.880968)scale(0.14 -0.14)">
     <use xlink:href="#DejaVuSans-2b24"/>
    </g>
   </g>
   <g id="text_23">
    <!-- ⬤ -->
    <g style="fill:#800000;" transform="translate(165.631907 106.998772)scale(0.14 -0.14)">
     <use xlink:href="#DejaVuSans-2b24"/>
    </g>
   </g>
   <g id="text_24">
    <!-- ⬤ -->
    <g style="fill:#800000;" transform="translate(165.631907 73.116577)scale(0.14 -0.14)">
     <use xlink:href="#DejaVuSans-2b24"/>
    </g>
   </g>
   <g id="text_25">
    <!-- ⬤ -->
    <g style="fill:#800000;" transform="translate(165.631907 39.234382)scale(0.14 -0.14)">
     <use xlink:href="#DejaVuSans-2b24"/>
    </g>
   </g>
   <g id="text_26">
    <!-- ⬤ -->
    <g style="fill:#800000;" transform="translate(199.514102 174.763163)scale(0.14 -0.14)">
     <use xlink:href="#DejaVuSans-2b24"/>
    </g>
   </g>
   <g id="text_27">
    <!-- ⬤ -->
    <g style="fill:#7f7f7f;" transform="translate(199.514102 140.880968)scale(0.14 -0.14)">
     <use xlink:href="#DejaVuSans-2b24"/>
    </g>
   </g>
   <g id="text_28">
    <!-- ⬤ -->
    <g style="fill:#7f7f7f;" transform="translate(199.514102 106.998772)scale(0.14 -0.14)">
     <use xlink:href="#DejaVuSans-2b24"/>
    </g>
   </g>
   <g id="text_29">
    <!-- ⬤ -->
    <g style="fill:#7f7f7f;" transform="translate(199.514102 73.116577)scale(0.14 -0.14)">
     <use xlink:href="#DejaVuSans-2b24"/>
    </g>
   </g>
   <g id="text_30">
    <!-- ⬤ -->
    <g style="fill:#7f7f7f;" transform="translate(199.514102 39.234382)scale(0.14 -0.14)">
     <use xlink:href="#DejaVuSans-2b24"/>
    </g>
   </g>
   <g id="text_31">
    <!-- ⬤ -->
    <g style="fill:#7f7f7f;" transform="translate(233.396297 174.763163)scale(0.14 -0.14)">
     <use xlink:href="#DejaVuSans-2b24"/>
    </g>
   </g>
   <g id="text_32">
    <!-- ⬤ -->
    <g style="fill:#7f7f7f;" transform="translate(233.396297 140.880968)scale(0.14 -0.14)">
     <use xlink:href="#DejaVuSans-2b24"/>
    </g>
   </g>
   <g id="text_33">
    <!-- ⬤ -->
    <g style="fill:#7f7f7f;" transform="translate(233.396297 106.998772)scale(0.14 -0.14)">
     <use xlink:href="#DejaVuSans-2b24"/>
    </g>
   </g>
   <g id="text_34">
    <!-- ⬤ -->
    <g style="fill:#7f7f7f;" transform="translate(233.396297 73.116577)scale(0.14 -0.14)">
     <use xlink:href="#DejaVuSans-2b24"/>
    </g>
   </g>
   <g id="text_35">
    <!-- ⬤ -->
    <g style="fill:#7f7f7f;" transform="translate(233.396297 39.234382)scale(0.14 -0.14)">
     <use xlink:href="#DejaVuSans-2b24"/>
    </g>
   </g>
   <g id="text_36">
    <!-- ⬤ -->
    <g style="fill:#7f7f7f;" transform="translate(267.278493 174.763163)scale(0.14 -0.14)">
     <use xlink:href="#DejaVuSans-2b24"/>
    </g>
   </g>
   <g id="text_37">
    <!-- ⬤ -->
    <g style="fill:#7f7f7f;" transform="translate(267.278493 140.880968)scale(0.14 -0.14)">
     <use xlink:href="#DejaVuSans-2b24"/>
    </g>
   </g>
   <g id="text_38">
    <!-- ⬤ -->
    <g style="fill:#7f7f7f;" transform="translate(267.278493 106.998772)scale(0.14 -0.14)">
     <use xlink:href="#DejaVuSans-2b24"/>
    </g>
   </g>
   <g id="text_39">
    <!-- ⬤ -->
    <g style="fill:#7f7f7f;" transform="translate(267.278493 73.116577)scale(0.14 -0.14)">
     <use xlink:href="#DejaVuSans-2b24"/>
    </g>
   </g>
   <g id="text_40">
    <!-- ⬤ -->
    <g style="fill:#7f7f7f;" transform="translate(267.278493 39.234382)scale(0.14 -0.14)">
     <use xlink:href="#DejaVuSans-2b24"/>
    </g>
   </g>
   <g id="text_41">
    <!-- ⬤ -->
    <g style="fill:#7f7f7f;" transform="translate(301.160688 174.763163)scale(0.14 -0.14)">
     <use xlink:href="#DejaVuSans-2b24"/>
    </g>
   </g>
   <g id="text_42">
    <!-- ⬤ -->
    <g style="fill:#7f7f7f;" transform="translate(301.160688 140.880968)scale(0.14 -0.14)">
     <use xlink:href="#DejaVuSans-2b24"/>
    </g>
   </g>
   <g id="text_43">
    <!-- ⬤ -->
    <g style="fill:#7f7f7f;" transform="translate(301.160688 106.998772)scale(0.14 -0.14)">
     <use xlink:href="#DejaVuSans-2b24"/>
    </g>
   </g>
   <g id="text_44">
    <!-- ⬤ -->
    <g style="fill:#7f7f7f;" transform="translate(301.160688 73.116577)scale(0.14 -0.14)">
     <use xlink:href="#DejaVuSans-2b24"/>
    </g>
   </g>
   <g id="text_45">
    <!-- ⬤ -->
    <g style="fill:#7f7f7f;" transform="translate(301.160688 39.234382)scale(0.14 -0.14)">
     <use xlink:href="#DejaVuSans-2b24"/>
    </g>
   </g>
   <g id="text_46">
    <!-- ⬤ -->
    <g style="fill:#7f7f7f;" transform="translate(335.042883 174.763163)scale(0.14 -0.14)">
     <use xlink:href="#DejaVuSans-2b24"/>
    </g>
   </g>
   <g id="text_47">
    <!-- ⬤ -->
    <g style="fill:#7f7f7f;" transform="translate(335.042883 140.880968)scale(0.14 -0.14)">
     <use xlink:href="#DejaVuSans-2b24"/>
    </g>
   </g>
   <g id="text_48">
    <!-- ⬤ -->
    <g style="fill:#7f7f7f;" transform="translate(335.042883 106.998772)scale(0.14 -0.14)">
     <use xlink:href="#DejaVuSans-2b24"/>
    </g>
   </g>
   <g id="text_49">
    <!-- ⬤ -->
    <g style="fill:#7f7f7f;" transform="translate(335.042883 73.116577)scale(0.14 -0.14)">
     <use xlink:href="#DejaVuSans-2b24"/>
    </g>
   </g>
   <g id="text_50">
    <!-- ⬤ -->
    <g style="fill:#7f7f7f;" transform="translate(335.042883 39.234382)scale(0.14 -0.14)">
     <use xlink:href="#DejaVuSans-2b24"/>
    </g>
   </g>
   <g id="text_51">
    <!-- ⬤ -->
    <g style="fill:#7f7f7f;" transform="translate(368.925079 174.763163)scale(0.14 -0.14)">
     <use xlink:href="#DejaVuSans-2b24"/>
    </g>
   </g>
   <g id="text_52">
    <!-- ⬤ -->
    <g style="fill:#7f7f7f;" transform="translate(368.925079 140.880968)scale(0.14 -0.14)">
     <use xlink:href="#DejaVuSans-2b24"/>
    </g>
   </g>
   <g id="text_53">
    <!-- ⬤ -->
    <g style="fill:#7f7f7f;" transform="translate(368.925079 106.998772)scale(0.14 -0.14)">
     <use xlink:href="#DejaVuSans-2b24"/>
    </g>
   </g>
   <g id="text_54">
    <!-- ⬤ -->
    <g style="fill:#7f7f7f;" transform="translate(368.925079 73.116577)scale(0.14 -0.14)">
     <use xlink:href="#DejaVuSans-2b24"/>
    </g>
   </g>
   <g id="text_55">
    <!-- ⬤ -->
    <g style="fill:#7f7f7f;" transform="translate(368.925079 39.234382)scale(0.14 -0.14)">
     <use xlink:href="#DejaVuSans-2b24"/>
    </g>
   </g>
   <g id="text_56">
    <!-- ⬤ -->
    <g style="fill:#7f7f7f;" transform="translate(402.807274 174.763163)scale(0.14 -0.14)">
     <use xlink:href="#DejaVuSans-2b24"/>
    </g>
   </g>
   <g id="text_57">
    <!-- ⬤ -->
    <g style="fill:#7f7f7f;" transform="translate(402.807274 140.880968)scale(0.14 -0.14)">
     <use xlink:href="#DejaVuSans-2b24"/>
    </g>
   </g>
   <g id="text_58">
    <!-- ⬤ -->
    <g style="fill:#7f7f7f;" transform="translate(402.807274 106.998772)scale(0.14 -0.14)">
     <use xlink:href="#DejaVuSans-2b24"/>
    </g>
   </g>
   <g id="text_59">
    <!-- ⬤ -->
    <g style="fill:#7f7f7f;" transform="translate(402.807274 73.116577)scale(0.14 -0.14)">
     <use xlink:href="#DejaVuSans-2b24"/>
    </g>
   </g>
   <g id="text_60">
    <!-- ⬤ -->
    <g style="fill:#7f7f7f;" transform="translate(402.807274 39.234382)scale(0.14 -0.14)">
     <use xlink:href="#DejaVuSans-2b24"/>
    </g>
   </g>
   <g id="text_61">
    <!-- ⬤ -->
    <g style="fill:#7f7f7f;" transform="translate(436.68947 174.763163)scale(0.14 -0.14)">
     <use xlink:href="#DejaVuSans-2b24"/>
    </g>
   </g>
   <g id="text_62">
    <!-- ⬤ -->
    <g style="fill:#7f7f7f;" transform="translate(436.68947 140.880968)scale(0.14 -0.14)">
     <use xlink:href="#DejaVuSans-2b24"/>
    </g>
   </g>
   <g id="text_63">
    <!-- ⬤ -->
    <g style="fill:#7f7f7f;" transform="translate(436.68947 106.998772)scale(0.14 -0.14)">
     <use xlink:href="#DejaVuSans-2b24"/>
    </g>
   </g>
   <g id="text_64">
    <!-- ⬤ -->
    <g style="fill:#7f7f7f;" transform="translate(436.68947 73.116577)scale(0.14 -0.14)">
     <use xlink:href="#DejaVuSans-2b24"/>
    </g>
   </g>
   <g id="text_65">
    <!-- ⬤ -->
    <g style="fill:#7f7f7f;" transform="translate(436.68947 39.234382)scale(0.14 -0.14)">
     <use xlink:href="#DejaVuSans-2b24"/>
    </g>
   </g>
   <g id="text_66">
    <!-- ⬤ -->
    <g style="fill:#7f7f7f;" transform="translate(470.571665 174.763163)scale(0.14 -0.14)">
     <use xlink:href="#DejaVuSans-2b24"/>
    </g>
   </g>
   <g id="text_67">
    <!-- ⬤ -->
    <g style="fill:#7f7f7f;" transform="translate(470.571665 140.880968)scale(0.14 -0.14)">
     <use xlink:href="#DejaVuSans-2b24"/>
    </g>
   </g>
   <g id="text_68">
    <!-- ⬤ -->
    <g style="fill:#7f7f7f;" transform="translate(470.571665 106.998772)scale(0.14 -0.14)">
     <use xlink:href="#DejaVuSans-2b24"/>
    </g>
   </g>
   <g id="text_69">
    <!-- ⬤ -->
    <g style="fill:#7f7f7f;" transform="translate(470.571665 73.116577)scale(0.14 -0.14)">
     <use xlink:href="#DejaVuSans-2b24"/>
    </g>
   </g>
   <g id="text_70">
    <!-- ⬤ -->
    <g style="fill:#7f7f7f;" transform="translate(470.571665 39.234382)scale(0.14 -0.14)">
     <use xlink:href="#DejaVuSans-2b24"/>
    </g>
   </g>
   <g id="text_71">
    <!-- ⬤ -->
    <g style="fill:#7f7f7f;" transform="translate(504.45386 174.763163)scale(0.14 -0.14)">
     <use xlink:href="#DejaVuSans-2b24"/>
    </g>
   </g>
   <g id="text_72">
    <!-- ⬤ -->
    <g style="fill:#7f7f7f;" transform="translate(504.45386 140.880968)scale(0.14 -0.14)">
     <use xlink:href="#DejaVuSans-2b24"/>
    </g>
   </g>
   <g id="text_73">
    <!-- ⬤ -->
    <g style="fill:#7f7f7f;" transform="translate(504.45386 106.998772)scale(0.14 -0.14)">
     <use xlink:href="#DejaVuSans-2b24"/>
    </g>
   </g>
   <g id="text_74">
    <!-- ⬤ -->
    <g style="fill:#7f7f7f;" transform="translate(504.45386 73.116577)scale(0.14 -0.14)">
     <use xlink:href="#DejaVuSans-2b24"/>
    </g>
   </g>
   <g id="text_75">
    <!-- ⬤ -->
    <g style="fill:#7f7f7f;" transform="translate(504.45386 39.234382)scale(0.14 -0.14)">
     <use xlink:href="#DejaVuSans-2b24"/>
    </g>
   </g>
   <g id="text_76">
    <!-- ⬤ -->
    <g style="fill:#7f7f7f;" transform="translate(538.336056 174.763163)scale(0.14 -0.14)">
     <use xlink:href="#DejaVuSans-2b24"/>
    </g>
   </g>
   <g id="text_77">
    <!-- ⬤ -->
    <g style="fill:#7f7f7f;" transform="translate(538.336056 140.880968)scale(0.14 -0.14)">
     <use xlink:href="#DejaVuSans-2b24"/>
    </g>
   </g>
   <g id="text_78">
    <!-- ⬤ -->
    <g style="fill:#7f7f7f;" transform="translate(538.336056 106.998772)scale(0.14 -0.14)">
     <use xlink:href="#DejaVuSans-2b24"/>
    </g>
   </g>
   <g id="text_79">
    <!-- ⬤ -->
    <g style="fill:#7f7f7f;" transform="translate(538.336056 73.116577)scale(0.14 -0.14)">
     <use xlink:href="#DejaVuSans-2b24"/>
    </g>
   </g>
   <g id="text_80">
    <!-- ⬤ -->
    <g style="fill:#7f7f7f;" transform="translate(538.336056 39.234382)scale(0.14 -0.14)">
     <use xlink:href="#DejaVuSans-2b24"/>
    </g>
   </g>
   <g id="text_81">
    <!-- ⬤ -->
    <g style="fill:#7f7f7f;" transform="translate(572.218251 174.763163)scale(0.14 -0.14)">
     <use xlink:href="#DejaVuSans-2b24"/>
    </g>
   </g>
   <g id="text_82">
    <!-- ⬤ -->
    <g style="fill:#7f7f7f;" transform="translate(572.218251 140.880968)scale(0.14 -0.14)">
     <use xlink:href="#DejaVuSans-2b24"/>
    </g>
   </g>
   <g id="text_83">
    <!-- ⬤ -->
    <g style="fill:#7f7f7f;" transform="translate(572.218251 106.998772)scale(0.14 -0.14)">
     <use xlink:href="#DejaVuSans-2b24"/>
    </g>
   </g>
   <g id="text_84">
    <!-- ⬤ -->
    <g style="fill:#7f7f7f;" transform="translate(572.218251 73.116577)scale(0.14 -0.14)">
     <use xlink:href="#DejaVuSans-2b24"/>
    </g>
   </g>
   <g id="text_85">
    <!-- ⬤ -->
    <g style="fill:#7f7f7f;" transform="translate(572.218251 39.234382)scale(0.14 -0.14)">
     <use xlink:href="#DejaVuSans-2b24"/>
    </g>
   </g>
   <g id="text_86">
    <!-- ⬤ -->
    <g style="fill:#7f7f7f;" transform="translate(606.100446 174.763163)scale(0.14 -0.14)">
     <use xlink:href="#DejaVuSans-2b24"/>
    </g>
   </g>
   <g id="text_87">
    <!-- ⬤ -->
    <g style="fill:#7f7f7f;" transform="translate(606.100446 140.880968)scale(0.14 -0.14)">
     <use xlink:href="#DejaVuSans-2b24"/>
    </g>
   </g>
   <g id="text_88">
    <!-- ⬤ -->
    <g style="fill:#7f7f7f;" transform="translate(606.100446 106.998772)scale(0.14 -0.14)">
     <use xlink:href="#DejaVuSans-2b24"/>
    </g>
   </g>
   <g id="text_89">
    <!-- ⬤ -->
    <g style="fill:#7f7f7f;" transform="translate(606.100446 73.116577)scale(0.14 -0.14)">
     <use xlink:href="#DejaVuSans-2b24"/>
    </g>
   </g>
   <g id="text_90">
    <!-- ⬤ -->
    <g style="fill:#7f7f7f;" transform="translate(606.100446 39.234382)scale(0.14 -0.14)">
     <use xlink:href="#DejaVuSans-2b24"/>
    </g>
   </g>
   <g id="text_91">
    <!-- ⬤ -->
    <g style="fill:#7f7f7f;" transform="translate(639.982642 174.763163)scale(0.14 -0.14)">
     <use xlink:href="#DejaVuSans-2b24"/>
    </g>
   </g>
   <g id="text_92">
    <!-- ⬤ -->
    <g style="fill:#7f7f7f;" transform="translate(639.982642 140.880968)scale(0.14 -0.14)">
     <use xlink:href="#DejaVuSans-2b24"/>
    </g>
   </g>
   <g id="text_93">
    <!-- ⬤ -->
    <g style="fill:#7f7f7f;" transform="translate(639.982642 106.998772)scale(0.14 -0.14)">
     <use xlink:href="#DejaVuSans-2b24"/>
    </g>
   </g>
   <g id="text_94">
    <!-- ⬤ -->
    <g style="fill:#7f7f7f;" transform="translate(639.982642 73.116577)scale(0.14 -0.14)">
     <use xlink:href="#DejaVuSans-2b24"/>
    </g>
   </g>
   <g id="text_95">
    <!-- ⬤ -->
    <g style="fill:#7f7f7f;" transform="translate(639.982642 39.234382)scale(0.14 -0.14)">
     <use xlink:href="#DejaVuSans-2b24"/>
    </g>
   </g>
   <g id="text_96">
    <!-- ⬤ -->
    <g style="fill:#7f7f7f;" transform="translate(673.864837 174.763163)scale(0.14 -0.14)">
     <use xlink:href="#DejaVuSans-2b24"/>
    </g>
   </g>
   <g id="text_97">
    <!-- ⬤ -->
    <g style="fill:#7f7f7f;" transform="translate(673.864837 140.880968)scale(0.14 -0.14)">
     <use xlink:href="#DejaVuSans-2b24"/>
    </g>
   </g>
   <g id="text_98">
    <!-- ⬤ -->
    <g style="fill:#7f7f7f;" transform="translate(673.864837 106.998772)scale(0.14 -0.14)">
     <use xlink:href="#DejaVuSans-2b24"/>
    </g>
   </g>
   <g id="text_99">
    <!-- ⬤ -->
    <g style="fill:#7f7f7f;" transform="translate(673.864837 73.116577)scale(0.14 -0.14)">
     <use xlink:href="#DejaVuSans-2b24"/>
    </g>
   </g>
   <g id="text_100">
    <!-- ⬤ -->
    <g style="fill:#7f7f7f;" transform="translate(673.864837 39.234382)scale(0.14 -0.14)">
     <use xlink:href="#DejaVuSans-2b24"/>
    </g>
   </g>
   <g id="legend_1">
    <g id="patch_2">
     <path d="M 37.103125 235.268741 
L 454.514063 235.268741 
Q 456.514063 235.268741 456.514063 233.268741 
L 456.514063 219.590616 
Q 456.514063 217.590616 454.514063 217.590616 
L 37.103125 217.590616 
Q 35.103125 217.590616 35.103125 219.590616 
L 35.103125 233.268741 
Q 35.103125 235.268741 37.103125 235.268741 
z
" style="fill:none;opacity:0;"/>
    </g>
    <g id="patch_3">
     <path d="M 39.103125 229.189053 
L 59.103125 229.189053 
L 59.103125 222.189053 
L 39.103125 222.189053 
z
" style="fill:#2ca02c;stroke:#2ca02c;stroke-linejoin:miter;"/>
    </g>
    <g id="text_101">
     <!-- Vegetables (10%) -->
     <defs>
      <path d="M 28.609375 0 
L 0.78125 72.90625 
L 11.078125 72.90625 
L 34.1875 11.53125 
L 57.328125 72.90625 
L 67.578125 72.90625 
L 39.796875 0 
z
" id="DejaVuSans-56"/>
      <path d="M 56.203125 29.59375 
L 56.203125 25.203125 
L 14.890625 25.203125 
Q 15.484375 15.921875 20.484375 11.0625 
Q 25.484375 6.203125 34.421875 6.203125 
Q 39.59375 6.203125 44.453125 7.46875 
Q 49.3125 8.734375 54.109375 11.28125 
L 54.109375 2.78125 
Q 49.265625 0.734375 44.1875 -0.34375 
Q 39.109375 -1.421875 33.890625 -1.421875 
Q 20.796875 -1.421875 13.15625 6.1875 
Q 5.515625 13.8125 5.515625 26.8125 
Q 5.515625 40.234375 12.765625 48.109375 
Q 20.015625 56 32.328125 56 
Q 43.359375 56 49.78125 48.890625 
Q 56.203125 41.796875 56.203125 29.59375 
z
M 47.21875 32.234375 
Q 47.125 39.59375 43.09375 43.984375 
Q 39.0625 48.390625 32.421875 48.390625 
Q 24.90625 48.390625 20.390625 44.140625 
Q 15.875 39.890625 15.1875 32.171875 
z
" id="DejaVuSans-65"/>
      <path d="M 45.40625 27.984375 
Q 45.40625 37.75 41.375 43.109375 
Q 37.359375 48.484375 30.078125 48.484375 
Q 22.859375 48.484375 18.828125 43.109375 
Q 14.796875 37.75 14.796875 27.984375 
Q 14.796875 18.265625 18.828125 12.890625 
Q 22.859375 7.515625 30.078125 7.515625 
Q 37.359375 7.515625 41.375 12.890625 
Q 45.40625 18.265625 45.40625 27.984375 
z
M 54.390625 6.78125 
Q 54.390625 -7.171875 48.1875 -13.984375 
Q 42 -20.796875 29.203125 -20.796875 
Q 24.46875 -20.796875 20.265625 -20.09375 
Q 16.0625 -19.390625 12.109375 -17.921875 
L 12.109375 -9.1875 
Q 16.0625 -11.328125 19.921875 -12.34375 
Q 23.78125 -13.375 27.78125 -13.375 
Q 36.625 -13.375 41.015625 -8.765625 
Q 45.40625 -4.15625 45.40625 5.171875 
L 45.40625 9.625 
Q 42.625 4.78125 38.28125 2.390625 
Q 33.9375 0 27.875 0 
Q 17.828125 0 11.671875 7.65625 
Q 5.515625 15.328125 5.515625 27.984375 
Q 5.515625 40.671875 11.671875 48.328125 
Q 17.828125 56 27.875 56 
Q 33.9375 56 38.28125 53.609375 
Q 42.625 51.21875 45.40625 46.390625 
L 45.40625 54.6875 
L 54.390625 54.6875 
z
" id="DejaVuSans-67"/>
      <path d="M 18.3125 70.21875 
L 18.3125 54.6875 
L 36.8125 54.6875 
L 36.8125 47.703125 
L 18.3125 47.703125 
L 18.3125 18.015625 
Q 18.3125 11.328125 20.140625 9.421875 
Q 21.96875 7.515625 27.59375 7.515625 
L 36.8125 7.515625 
L 36.8125 0 
L 27.59375 0 
Q 17.1875 0 13.234375 3.875 
Q 9.28125 7.765625 9.28125 18.015625 
L 9.28125 47.703125 
L 2.6875 47.703125 
L 2.6875 54.6875 
L 9.28125 54.6875 
L 9.28125 70.21875 
z
" id="DejaVuSans-74"/>
      <path d="M 34.28125 27.484375 
Q 23.390625 27.484375 19.1875 25 
Q 14.984375 22.515625 14.984375 16.5 
Q 14.984375 11.71875 18.140625 8.90625 
Q 21.296875 6.109375 26.703125 6.109375 
Q 34.1875 6.109375 38.703125 11.40625 
Q 43.21875 16.703125 43.21875 25.484375 
L 43.21875 27.484375 
z
M 52.203125 31.203125 
L 52.203125 0 
L 43.21875 0 
L 43.21875 8.296875 
Q 40.140625 3.328125 35.546875 0.953125 
Q 30.953125 -1.421875 24.3125 -1.421875 
Q 15.921875 -1.421875 10.953125 3.296875 
Q 6 8.015625 6 15.921875 
Q 6 25.140625 12.171875 29.828125 
Q 18.359375 34.515625 30.609375 34.515625 
L 43.21875 34.515625 
L 43.21875 35.40625 
Q 43.21875 41.609375 39.140625 45 
Q 35.0625 48.390625 27.6875 48.390625 
Q 23 48.390625 18.546875 47.265625 
Q 14.109375 46.140625 10.015625 43.890625 
L 10.015625 52.203125 
Q 14.9375 54.109375 19.578125 55.046875 
Q 24.21875 56 28.609375 56 
Q 40.484375 56 46.34375 49.84375 
Q 52.203125 43.703125 52.203125 31.203125 
z
" id="DejaVuSans-61"/>
      <path d="M 48.6875 27.296875 
Q 48.6875 37.203125 44.609375 42.84375 
Q 40.53125 48.484375 33.40625 48.484375 
Q 26.265625 48.484375 22.1875 42.84375 
Q 18.109375 37.203125 18.109375 27.296875 
Q 18.109375 17.390625 22.1875 11.75 
Q 26.265625 6.109375 33.40625 6.109375 
Q 40.53125 6.109375 44.609375 11.75 
Q 48.6875 17.390625 48.6875 27.296875 
z
M 18.109375 46.390625 
Q 20.953125 51.265625 25.265625 53.625 
Q 29.59375 56 35.59375 56 
Q 45.5625 56 51.78125 48.09375 
Q 58.015625 40.1875 58.015625 27.296875 
Q 58.015625 14.40625 51.78125 6.484375 
Q 45.5625 -1.421875 35.59375 -1.421875 
Q 29.59375 -1.421875 25.265625 0.953125 
Q 20.953125 3.328125 18.109375 8.203125 
L 18.109375 0 
L 9.078125 0 
L 9.078125 75.984375 
L 18.109375 75.984375 
z
" id="DejaVuSans-62"/>
      <path d="M 9.421875 75.984375 
L 18.40625 75.984375 
L 18.40625 0 
L 9.421875 0 
z
" id="DejaVuSans-6c"/>
      <path d="M 44.28125 53.078125 
L 44.28125 44.578125 
Q 40.484375 46.53125 36.375 47.5 
Q 32.28125 48.484375 27.875 48.484375 
Q 21.1875 48.484375 17.84375 46.4375 
Q 14.5 44.390625 14.5 40.28125 
Q 14.5 37.15625 16.890625 35.375 
Q 19.28125 33.59375 26.515625 31.984375 
L 29.59375 31.296875 
Q 39.15625 29.25 43.1875 25.515625 
Q 47.21875 21.78125 47.21875 15.09375 
Q 47.21875 7.46875 41.1875 3.015625 
Q 35.15625 -1.421875 24.609375 -1.421875 
Q 20.21875 -1.421875 15.453125 -0.5625 
Q 10.6875 0.296875 5.421875 2 
L 5.421875 11.28125 
Q 10.40625 8.6875 15.234375 7.390625 
Q 20.0625 6.109375 24.8125 6.109375 
Q 31.15625 6.109375 34.5625 8.28125 
Q 37.984375 10.453125 37.984375 14.40625 
Q 37.984375 18.0625 35.515625 20.015625 
Q 33.0625 21.96875 24.703125 23.78125 
L 21.578125 24.515625 
Q 13.234375 26.265625 9.515625 29.90625 
Q 5.8125 33.546875 5.8125 39.890625 
Q 5.8125 47.609375 11.28125 51.796875 
Q 16.75 56 26.8125 56 
Q 31.78125 56 36.171875 55.265625 
Q 40.578125 54.546875 44.28125 53.078125 
z
" id="DejaVuSans-73"/>
      <path id="DejaVuSans-20"/>
      <path d="M 31 75.875 
Q 24.46875 64.65625 21.28125 53.65625 
Q 18.109375 42.671875 18.109375 31.390625 
Q 18.109375 20.125 21.3125 9.0625 
Q 24.515625 -2 31 -13.1875 
L 23.1875 -13.1875 
Q 15.875 -1.703125 12.234375 9.375 
Q 8.59375 20.453125 8.59375 31.390625 
Q 8.59375 42.28125 12.203125 53.3125 
Q 15.828125 64.359375 23.1875 75.875 
z
" id="DejaVuSans-28"/>
      <path d="M 12.40625 8.296875 
L 28.515625 8.296875 
L 28.515625 63.921875 
L 10.984375 60.40625 
L 10.984375 69.390625 
L 28.421875 72.90625 
L 38.28125 72.90625 
L 38.28125 8.296875 
L 54.390625 8.296875 
L 54.390625 0 
L 12.40625 0 
z
" id="DejaVuSans-31"/>
      <path d="M 31.78125 66.40625 
Q 24.171875 66.40625 20.328125 58.90625 
Q 16.5 51.421875 16.5 36.375 
Q 16.5 21.390625 20.328125 13.890625 
Q 24.171875 6.390625 31.78125 6.390625 
Q 39.453125 6.390625 43.28125 13.890625 
Q 47.125 21.390625 47.125 36.375 
Q 47.125 51.421875 43.28125 58.90625 
Q 39.453125 66.40625 31.78125 66.40625 
z
M 31.78125 74.21875 
Q 44.046875 74.21875 50.515625 64.515625 
Q 56.984375 54.828125 56.984375 36.375 
Q 56.984375 17.96875 50.515625 8.265625 
Q 44.046875 -1.421875 31.78125 -1.421875 
Q 19.53125 -1.421875 13.0625 8.265625 
Q 6.59375 17.96875 6.59375 36.375 
Q 6.59375 54.828125 13.0625 64.515625 
Q 19.53125 74.21875 31.78125 74.21875 
z
" id="DejaVuSans-30"/>
      <path d="M 72.703125 32.078125 
Q 68.453125 32.078125 66.03125 28.46875 
Q 63.625 24.859375 63.625 18.40625 
Q 63.625 12.0625 66.03125 8.421875 
Q 68.453125 4.78125 72.703125 4.78125 
Q 76.859375 4.78125 79.265625 8.421875 
Q 81.6875 12.0625 81.6875 18.40625 
Q 81.6875 24.8125 79.265625 28.4375 
Q 76.859375 32.078125 72.703125 32.078125 
z
M 72.703125 38.28125 
Q 80.421875 38.28125 84.953125 32.90625 
Q 89.5 27.546875 89.5 18.40625 
Q 89.5 9.28125 84.9375 3.921875 
Q 80.375 -1.421875 72.703125 -1.421875 
Q 64.890625 -1.421875 60.34375 3.921875 
Q 55.8125 9.28125 55.8125 18.40625 
Q 55.8125 27.59375 60.375 32.9375 
Q 64.9375 38.28125 72.703125 38.28125 
z
M 22.3125 68.015625 
Q 18.109375 68.015625 15.6875 64.375 
Q 13.28125 60.75 13.28125 54.390625 
Q 13.28125 47.953125 15.671875 44.328125 
Q 18.0625 40.71875 22.3125 40.71875 
Q 26.5625 40.71875 28.96875 44.328125 
Q 31.390625 47.953125 31.390625 54.390625 
Q 31.390625 60.6875 28.953125 64.34375 
Q 26.515625 68.015625 22.3125 68.015625 
z
M 66.40625 74.21875 
L 74.21875 74.21875 
L 28.609375 -1.421875 
L 20.796875 -1.421875 
z
M 22.3125 74.21875 
Q 30.03125 74.21875 34.609375 68.875 
Q 39.203125 63.53125 39.203125 54.390625 
Q 39.203125 45.171875 34.640625 39.84375 
Q 30.078125 34.515625 22.3125 34.515625 
Q 14.546875 34.515625 10.03125 39.859375 
Q 5.515625 45.21875 5.515625 54.390625 
Q 5.515625 63.484375 10.046875 68.84375 
Q 14.59375 74.21875 22.3125 74.21875 
z
" id="DejaVuSans-25"/>
      <path d="M 8.015625 75.875 
L 15.828125 75.875 
Q 23.140625 64.359375 26.78125 53.3125 
Q 30.421875 42.28125 30.421875 31.390625 
Q 30.421875 20.453125 26.78125 9.375 
Q 23.140625 -1.703125 15.828125 -13.1875 
L 8.015625 -13.1875 
Q 14.5 -2 17.703125 9.0625 
Q 20.90625 20.125 20.90625 31.390625 
Q 20.90625 42.671875 17.703125 53.65625 
Q 14.5 64.65625 8.015625 75.875 
z
" id="DejaVuSans-29"/>
     </defs>
     <g transform="translate(67.103125 229.189053)scale(0.1 -0.1)">
      <use xlink:href="#DejaVuSans-56"/>
      <use x="68.298828" xlink:href="#DejaVuSans-65"/>
      <use x="129.822266" xlink:href="#DejaVuSans-67"/>
      <use x="193.298828" xlink:href="#DejaVuSans-65"/>
      <use x="254.822266" xlink:href="#DejaVuSans-74"/>
      <use x="294.03125" xlink:href="#DejaVuSans-61"/>
      <use x="355.310547" xlink:href="#DejaVuSans-62"/>
      <use x="418.787109" xlink:href="#DejaVuSans-6c"/>
      <use x="446.570312" xlink:href="#DejaVuSans-65"/>
      <use x="508.09375" xlink:href="#DejaVuSans-73"/>
      <use x="560.193359" xlink:href="#DejaVuSans-20"/>
      <use x="591.980469" xlink:href="#DejaVuSans-28"/>
      <use x="630.994141" xlink:href="#DejaVuSans-31"/>
      <use x="694.617188" xlink:href="#DejaVuSans-30"/>
      <use x="758.240234" xlink:href="#DejaVuSans-25"/>
      <use x="853.259766" xlink:href="#DejaVuSans-29"/>
     </g>
    </g>
    <g id="patch_4">
     <path d="M 176.332813 229.189053 
L 196.332813 229.189053 
L 196.332813 222.189053 
L 176.332813 222.189053 
z
" style="fill:#800000;stroke:#800000;stroke-linejoin:miter;"/>
    </g>
    <g id="text_102">
     <!-- Meat-based Products (16%) -->
     <defs>
      <path d="M 9.8125 72.90625 
L 24.515625 72.90625 
L 43.109375 23.296875 
L 61.8125 72.90625 
L 76.515625 72.90625 
L 76.515625 0 
L 66.890625 0 
L 66.890625 64.015625 
L 48.09375 14.015625 
L 38.1875 14.015625 
L 19.390625 64.015625 
L 19.390625 0 
L 9.8125 0 
z
" id="DejaVuSans-4d"/>
      <path d="M 4.890625 31.390625 
L 31.203125 31.390625 
L 31.203125 23.390625 
L 4.890625 23.390625 
z
" id="DejaVuSans-2d"/>
      <path d="M 45.40625 46.390625 
L 45.40625 75.984375 
L 54.390625 75.984375 
L 54.390625 0 
L 45.40625 0 
L 45.40625 8.203125 
Q 42.578125 3.328125 38.25 0.953125 
Q 33.9375 -1.421875 27.875 -1.421875 
Q 17.96875 -1.421875 11.734375 6.484375 
Q 5.515625 14.40625 5.515625 27.296875 
Q 5.515625 40.1875 11.734375 48.09375 
Q 17.96875 56 27.875 56 
Q 33.9375 56 38.25 53.625 
Q 42.578125 51.265625 45.40625 46.390625 
z
M 14.796875 27.296875 
Q 14.796875 17.390625 18.875 11.75 
Q 22.953125 6.109375 30.078125 6.109375 
Q 37.203125 6.109375 41.296875 11.75 
Q 45.40625 17.390625 45.40625 27.296875 
Q 45.40625 37.203125 41.296875 42.84375 
Q 37.203125 48.484375 30.078125 48.484375 
Q 22.953125 48.484375 18.875 42.84375 
Q 14.796875 37.203125 14.796875 27.296875 
z
" id="DejaVuSans-64"/>
      <path d="M 19.671875 64.796875 
L 19.671875 37.40625 
L 32.078125 37.40625 
Q 38.96875 37.40625 42.71875 40.96875 
Q 46.484375 44.53125 46.484375 51.125 
Q 46.484375 57.671875 42.71875 61.234375 
Q 38.96875 64.796875 32.078125 64.796875 
z
M 9.8125 72.90625 
L 32.078125 72.90625 
Q 44.34375 72.90625 50.609375 67.359375 
Q 56.890625 61.8125 56.890625 51.125 
Q 56.890625 40.328125 50.609375 34.8125 
Q 44.34375 29.296875 32.078125 29.296875 
L 19.671875 29.296875 
L 19.671875 0 
L 9.8125 0 
z
" id="DejaVuSans-50"/>
      <path d="M 41.109375 46.296875 
Q 39.59375 47.171875 37.8125 47.578125 
Q 36.03125 48 33.890625 48 
Q 26.265625 48 22.1875 43.046875 
Q 18.109375 38.09375 18.109375 28.8125 
L 18.109375 0 
L 9.078125 0 
L 9.078125 54.6875 
L 18.109375 54.6875 
L 18.109375 46.1875 
Q 20.953125 51.171875 25.484375 53.578125 
Q 30.03125 56 36.53125 56 
Q 37.453125 56 38.578125 55.875 
Q 39.703125 55.765625 41.0625 55.515625 
z
" id="DejaVuSans-72"/>
      <path d="M 30.609375 48.390625 
Q 23.390625 48.390625 19.1875 42.75 
Q 14.984375 37.109375 14.984375 27.296875 
Q 14.984375 17.484375 19.15625 11.84375 
Q 23.34375 6.203125 30.609375 6.203125 
Q 37.796875 6.203125 41.984375 11.859375 
Q 46.1875 17.53125 46.1875 27.296875 
Q 46.1875 37.015625 41.984375 42.703125 
Q 37.796875 48.390625 30.609375 48.390625 
z
M 30.609375 56 
Q 42.328125 56 49.015625 48.375 
Q 55.71875 40.765625 55.71875 27.296875 
Q 55.71875 13.875 49.015625 6.21875 
Q 42.328125 -1.421875 30.609375 -1.421875 
Q 18.84375 -1.421875 12.171875 6.21875 
Q 5.515625 13.875 5.515625 27.296875 
Q 5.515625 40.765625 12.171875 48.375 
Q 18.84375 56 30.609375 56 
z
" id="DejaVuSans-6f"/>
      <path d="M 8.5 21.578125 
L 8.5 54.6875 
L 17.484375 54.6875 
L 17.484375 21.921875 
Q 17.484375 14.15625 20.5 10.265625 
Q 23.53125 6.390625 29.59375 6.390625 
Q 36.859375 6.390625 41.078125 11.03125 
Q 45.3125 15.671875 45.3125 23.6875 
L 45.3125 54.6875 
L 54.296875 54.6875 
L 54.296875 0 
L 45.3125 0 
L 45.3125 8.40625 
Q 42.046875 3.421875 37.71875 1 
Q 33.40625 -1.421875 27.6875 -1.421875 
Q 18.265625 -1.421875 13.375 4.4375 
Q 8.5 10.296875 8.5 21.578125 
z
M 31.109375 56 
z
" id="DejaVuSans-75"/>
      <path d="M 48.78125 52.59375 
L 48.78125 44.1875 
Q 44.96875 46.296875 41.140625 47.34375 
Q 37.3125 48.390625 33.40625 48.390625 
Q 24.65625 48.390625 19.8125 42.84375 
Q 14.984375 37.3125 14.984375 27.296875 
Q 14.984375 17.28125 19.8125 11.734375 
Q 24.65625 6.203125 33.40625 6.203125 
Q 37.3125 6.203125 41.140625 7.25 
Q 44.96875 8.296875 48.78125 10.40625 
L 48.78125 2.09375 
Q 45.015625 0.34375 40.984375 -0.53125 
Q 36.96875 -1.421875 32.421875 -1.421875 
Q 20.0625 -1.421875 12.78125 6.34375 
Q 5.515625 14.109375 5.515625 27.296875 
Q 5.515625 40.671875 12.859375 48.328125 
Q 20.21875 56 33.015625 56 
Q 37.15625 56 41.109375 55.140625 
Q 45.0625 54.296875 48.78125 52.59375 
z
" id="DejaVuSans-63"/>
      <path d="M 33.015625 40.375 
Q 26.375 40.375 22.484375 35.828125 
Q 18.609375 31.296875 18.609375 23.390625 
Q 18.609375 15.53125 22.484375 10.953125 
Q 26.375 6.390625 33.015625 6.390625 
Q 39.65625 6.390625 43.53125 10.953125 
Q 47.40625 15.53125 47.40625 23.390625 
Q 47.40625 31.296875 43.53125 35.828125 
Q 39.65625 40.375 33.015625 40.375 
z
M 52.59375 71.296875 
L 52.59375 62.3125 
Q 48.875 64.0625 45.09375 64.984375 
Q 41.3125 65.921875 37.59375 65.921875 
Q 27.828125 65.921875 22.671875 59.328125 
Q 17.53125 52.734375 16.796875 39.40625 
Q 19.671875 43.65625 24.015625 45.921875 
Q 28.375 48.1875 33.59375 48.1875 
Q 44.578125 48.1875 50.953125 41.515625 
Q 57.328125 34.859375 57.328125 23.390625 
Q 57.328125 12.15625 50.6875 5.359375 
Q 44.046875 -1.421875 33.015625 -1.421875 
Q 20.359375 -1.421875 13.671875 8.265625 
Q 6.984375 17.96875 6.984375 36.375 
Q 6.984375 53.65625 15.1875 63.9375 
Q 23.390625 74.21875 37.203125 74.21875 
Q 40.921875 74.21875 44.703125 73.484375 
Q 48.484375 72.75 52.59375 71.296875 
z
" id="DejaVuSans-36"/>
     </defs>
     <g transform="translate(204.332813 229.189053)scale(0.1 -0.1)">
      <use xlink:href="#DejaVuSans-4d"/>
      <use x="86.279297" xlink:href="#DejaVuSans-65"/>
      <use x="147.802734" xlink:href="#DejaVuSans-61"/>
      <use x="209.082031" xlink:href="#DejaVuSans-74"/>
      <use x="248.291016" xlink:href="#DejaVuSans-2d"/>
      <use x="284.375" xlink:href="#DejaVuSans-62"/>
      <use x="347.851562" xlink:href="#DejaVuSans-61"/>
      <use x="409.130859" xlink:href="#DejaVuSans-73"/>
      <use x="461.230469" xlink:href="#DejaVuSans-65"/>
      <use x="522.753906" xlink:href="#DejaVuSans-64"/>
      <use x="586.230469" xlink:href="#DejaVuSans-20"/>
      <use x="618.017578" xlink:href="#DejaVuSans-50"/>
      <use x="678.304688" xlink:href="#DejaVuSans-72"/>
      <use x="719.386719" xlink:href="#DejaVuSans-6f"/>
      <use x="780.568359" xlink:href="#DejaVuSans-64"/>
      <use x="844.044922" xlink:href="#DejaVuSans-75"/>
      <use x="907.423828" xlink:href="#DejaVuSans-63"/>
      <use x="962.404297" xlink:href="#DejaVuSans-74"/>
      <use x="1001.613281" xlink:href="#DejaVuSans-73"/>
      <use x="1053.712891" xlink:href="#DejaVuSans-20"/>
      <use x="1085.5" xlink:href="#DejaVuSans-28"/>
      <use x="1124.513672" xlink:href="#DejaVuSans-31"/>
      <use x="1188.136719" xlink:href="#DejaVuSans-36"/>
      <use x="1251.759766" xlink:href="#DejaVuSans-25"/>
      <use x="1346.779297" xlink:href="#DejaVuSans-29"/>
     </g>
    </g>
    <g id="patch_5">
     <path d="M 362.9125 229.189053 
L 382.9125 229.189053 
L 382.9125 222.189053 
L 362.9125 222.189053 
z
" style="fill:#7f7f7f;stroke:#7f7f7f;stroke-linejoin:miter;"/>
    </g>
    <g id="text_103">
     <!-- Other (74%) -->
     <defs>
      <path d="M 39.40625 66.21875 
Q 28.65625 66.21875 22.328125 58.203125 
Q 16.015625 50.203125 16.015625 36.375 
Q 16.015625 22.609375 22.328125 14.59375 
Q 28.65625 6.59375 39.40625 6.59375 
Q 50.140625 6.59375 56.421875 14.59375 
Q 62.703125 22.609375 62.703125 36.375 
Q 62.703125 50.203125 56.421875 58.203125 
Q 50.140625 66.21875 39.40625 66.21875 
z
M 39.40625 74.21875 
Q 54.734375 74.21875 63.90625 63.9375 
Q 73.09375 53.65625 73.09375 36.375 
Q 73.09375 19.140625 63.90625 8.859375 
Q 54.734375 -1.421875 39.40625 -1.421875 
Q 24.03125 -1.421875 14.8125 8.828125 
Q 5.609375 19.09375 5.609375 36.375 
Q 5.609375 53.65625 14.8125 63.9375 
Q 24.03125 74.21875 39.40625 74.21875 
z
" id="DejaVuSans-4f"/>
      <path d="M 54.890625 33.015625 
L 54.890625 0 
L 45.90625 0 
L 45.90625 32.71875 
Q 45.90625 40.484375 42.875 44.328125 
Q 39.84375 48.1875 33.796875 48.1875 
Q 26.515625 48.1875 22.3125 43.546875 
Q 18.109375 38.921875 18.109375 30.90625 
L 18.109375 0 
L 9.078125 0 
L 9.078125 75.984375 
L 18.109375 75.984375 
L 18.109375 46.1875 
Q 21.34375 51.125 25.703125 53.5625 
Q 30.078125 56 35.796875 56 
Q 45.21875 56 50.046875 50.171875 
Q 54.890625 44.34375 54.890625 33.015625 
z
" id="DejaVuSans-68"/>
      <path d="M 8.203125 72.90625 
L 55.078125 72.90625 
L 55.078125 68.703125 
L 28.609375 0 
L 18.3125 0 
L 43.21875 64.59375 
L 8.203125 64.59375 
z
" id="DejaVuSans-37"/>
      <path d="M 37.796875 64.3125 
L 12.890625 25.390625 
L 37.796875 25.390625 
z
M 35.203125 72.90625 
L 47.609375 72.90625 
L 47.609375 25.390625 
L 58.015625 25.390625 
L 58.015625 17.1875 
L 47.609375 17.1875 
L 47.609375 0 
L 37.796875 0 
L 37.796875 17.1875 
L 4.890625 17.1875 
L 4.890625 26.703125 
z
" id="DejaVuSans-34"/>
     </defs>
     <g transform="translate(390.9125 229.189053)scale(0.1 -0.1)">
      <use xlink:href="#DejaVuSans-4f"/>
      <use x="78.710938" xlink:href="#DejaVuSans-74"/>
      <use x="117.919922" xlink:href="#DejaVuSans-68"/>
      <use x="181.298828" xlink:href="#DejaVuSans-65"/>
      <use x="242.822266" xlink:href="#DejaVuSans-72"/>
      <use x="283.935547" xlink:href="#DejaVuSans-20"/>
      <use x="315.722656" xlink:href="#DejaVuSans-28"/>
      <use x="354.736328" xlink:href="#DejaVuSans-37"/>
      <use x="418.359375" xlink:href="#DejaVuSans-34"/>
      <use x="481.982422" xlink:href="#DejaVuSans-25"/>
      <use x="577.001953" xlink:href="#DejaVuSans-29"/>
     </g>
    </g>
   </g>
  </g>
 </g>
</svg>
